<?xml version="1.0" encoding="utf-8"?>
<!-- Generator: Adobe Illustrator 21.1.0, SVG Export Plug-In . SVG Version: 6.00 Build 0)  -->
<svg version="1.1" id="Warstwa_1" xmlns="http://www.w3.org/2000/svg" xmlns:xlink="http://www.w3.org/1999/xlink" x="0px" y="0px"
	 viewBox="0 0 153.5 172.8" style="enable-background:new 0 0 153.5 172.8;" xml:space="preserve">
<style type="text/css">
	.st0{clip-path:url(#SVGID_2_);}
	.st1{clip-path:url(#SVGID_4_);fill:#D8B355;}
	.st2{clip-path:url(#SVGID_4_);fill:#E5C776;}
	.st3{clip-path:url(#SVGID_4_);fill:#F2D98B;}
	.st4{clip-path:url(#SVGID_4_);fill:#F2E7C7;}
</style>
<g id="Kompozycja_5">
	<g>
		<defs>
			<rect id="SVGID_1_" width="153.5" height="172.8"/>
		</defs>
		<clipPath id="SVGID_2_">
			<use xlink:href="#SVGID_1_"  style="overflow:visible;"/>
		</clipPath>
		<g class="st0">
			<defs>
				<rect id="SVGID_3_" width="153.5" height="172.8"/>
			</defs>
			<clipPath id="SVGID_4_">
				<use xlink:href="#SVGID_3_"  style="overflow:visible;"/>
			</clipPath>
			<path class="st1" d="M95.4,0H58.1c8.1,4,14.6,4.8,18.6,4.8C81.4,4.8,87.3,4,95.4,0"/>
			<path class="st2" d="M121.3,75.5c11.9,6.2,32.3-10.4,32.3-10.4l-22.9-52c0,0-12.4,25.5-13,38.8L121.3,75.5z"/>
			<path class="st3" d="M121.3,75.5L117.7,52c0.6-13.3,13-38.8,13-38.8L95.4,0c-8.1,4-13.9,4.8-18.6,4.8c-4,0-10.6-0.7-18.6-4.8
				L22.9,13.1c0,0,12.4,25.5,13,38.8l-3.6,23.5l-7.6,94c0,0,5.1,3.4,51.8,3.4h0.3h0.3c46.6,0,51.8-3.4,51.8-3.4L121.3,75.5z"/>
			<path class="st2" d="M32.3,75.5C20.3,81.6,0,65.1,0,65.1l22.9-52c0,0,12.4,25.5,13,38.8L32.3,75.5z"/>
			<path class="st4" d="M55.3,1c0,0,6.3,6.3,21.4,6.3C91.9,7.4,98.2,1,98.2,1l-2.8-1c0,0-8.8,4.7-18.9,4.8C66.5,4.8,58.1,0,58.1,0
				L55.3,1z"/>
		</g>
	</g>
</g>
</svg>
