<?xml version="1.0" encoding="utf-8"?>
<!-- Generator: Adobe Illustrator 21.1.0, SVG Export Plug-In . SVG Version: 6.00 Build 0)  -->
<svg version="1.1" id="Warstwa_1" xmlns="http://www.w3.org/2000/svg" xmlns:xlink="http://www.w3.org/1999/xlink" x="0px" y="0px"
	 viewBox="0 0 134 244.4" style="enable-background:new 0 0 134 244.4;" xml:space="preserve">
<style type="text/css">
	.st0{clip-path:url(#SVGID_2_);}
	.st1{clip-path:url(#SVGID_4_);fill:#3E3F3E;}
	.st2{clip-path:url(#SVGID_4_);fill:#474948;}
	.st3{clip-path:url(#SVGID_4_);fill:#272827;}
	.st4{clip-path:url(#SVGID_4_);fill:#2C2D2C;}
</style>
<g id="Kompozycja_9">
	<g>
		<defs>
			<rect id="SVGID_1_" y="0" width="134" height="244.4"/>
		</defs>
		<clipPath id="SVGID_2_">
			<use xlink:href="#SVGID_1_"  style="overflow:visible;"/>
		</clipPath>
		<g class="st0">
			<defs>
				<rect id="SVGID_3_" y="0" width="134" height="244.4"/>
			</defs>
			<clipPath id="SVGID_4_">
				<use xlink:href="#SVGID_3_"  style="overflow:visible;"/>
			</clipPath>
			<path class="st1" d="M134,239.5c-0.4-4.1-9.5-113.5-10.7-130.7c-1.2-17.3-4.9-60.4-5.8-71.5c-0.8-11.1-4.8-35.7-4.8-35.7H21.3
				c0,0-4,24.6-4.8,35.7c-0.8,11.1-4.5,54.3-5.8,71.5C9.5,126,0.4,235.4,0,239.5l32.1,4.9L67,58.8l34.9,185.6L134,239.5z"/>
			<polygon class="st2" points="20.2,8.6 113.8,8.6 112.7,1.5 21.3,1.5 			"/>
			<path class="st1" d="M60.9,1.5c0,0-5.4,2.8,0,7.1h52.9l-1.1-7.1H60.9z"/>
			<path class="st3" d="M64.5,5.1c0,1.1-0.9,2-2,2c-1.1,0-2-0.9-2-2c0-1.1,0.9-2,2-2C63.6,3.1,64.5,4,64.5,5.1"/>
			<rect x="43.2" y="0" class="st4" width="3.7" height="10.3"/>
			<rect x="78.6" y="0" class="st4" width="3.7" height="10.3"/>
			<path class="st4" d="M20.2,8.6L20.2,8.6c-1.2,7.7-3,19.8-3.6,27.3l0,0L35,8.6H20.2z"/>
			<path class="st4" d="M113.8,8.6L113.8,8.6c1.2,7.7,3,19.8,3.6,27.3l0,0L99,8.6H113.8z"/>
			<path class="st4" d="M66.3,8.6V52c0,0,7.9-3.5,9.1-5.7V8.6H66.3z"/>
			<polygon class="st4" points="44.7,20.4 44.7,51 41.7,51 			"/>
			<polygon class="st4" points="39.1,65.6 27.7,137.7 16.3,234.9 30.5,139.1 			"/>
			<polygon class="st4" points="88.2,20.4 88.2,51 91.1,51 			"/>
			<polygon class="st4" points="94.6,65.6 106,137.7 117.4,234.9 103.2,139.1 			"/>
		</g>
	</g>
</g>
</svg>
