<?xml version="1.0" encoding="utf-8"?>
<!-- Generator: Adobe Illustrator 21.1.0, SVG Export Plug-In . SVG Version: 6.00 Build 0)  -->
<svg version="1.1" id="Warstwa_1" xmlns="http://www.w3.org/2000/svg" xmlns:xlink="http://www.w3.org/1999/xlink" x="0px" y="0px"
	 viewBox="0 0 152.8 189.2" style="enable-background:new 0 0 152.8 189.2;" xml:space="preserve">
<style type="text/css">
	.st0{clip-path:url(#SVGID_2_);}
	.st1{clip-path:url(#SVGID_4_);fill:#474948;}
	.st2{clip-path:url(#SVGID_4_);fill:#3C3D3C;}
	.st3{clip-path:url(#SVGID_4_);fill:#3E3F3E;}
	.st4{clip-path:url(#SVGID_4_);fill:#252625;}
	.st5{clip-path:url(#SVGID_4_);fill:#2D2D2D;}
</style>
<g id="Kompozycja_8">
	<g>
		<defs>
			<rect id="SVGID_1_" width="152.8" height="189.2"/>
		</defs>
		<clipPath id="SVGID_2_">
			<use xlink:href="#SVGID_1_"  style="overflow:visible;"/>
		</clipPath>
		<g class="st0">
			<defs>
				<rect id="SVGID_3_" width="152.8" height="189.2"/>
			</defs>
			<clipPath id="SVGID_4_">
				<use xlink:href="#SVGID_3_"  style="overflow:visible;"/>
			</clipPath>
			<path class="st1" d="M63,0h26.5c0,0-3.1,21.3-3.9,23.9c-0.9,2.5-10.1,25.8-10.1,25.8l-9.8-26.3L63,0z"/>
			<path class="st2" d="M25.5,174.5c0.3-5.7,2-14.2,3.6-23.2c0-0.1-1.9-58.3,1.9-74.6c-0.1-0.3-0.1-2.7-0.1-2.7
				c-2.6-35.9-7-48.3-9-53.4l-1.2-2.4c0,0-5.8-1.3-7.2,6.3c-1.3,7.6-13.2,81-13.5,102.7c-0.2,21.8,1.6,47.3,1.6,47.3L25.5,174.5
				L25.5,174.5z"/>
			<path class="st3" d="M76.3,179.6l7.9,9.6c0,0,42.5-6.7,44-9.6c0,0-4.7-28.3-6.4-37.2c-1.7-9-3.8-50.2-3.8-50.2l3.8-15.6
				c0,0,3.5-47,10.3-58.5c0,0-29.1-9-36.1-11.9l6.7,18.2l-4.6,2.4l5.4,6.5c0,0-42.4,48.5-45.3,52.4C58.3,85.7,54.6,121.8,76.3,179.6
				"/>
			<path class="st1" d="M56,6.6L20.7,18.2c0,0,6.7,9.7,10.2,58c0,0,3.4,9.4,4.3,13.9c0,0,0.4,20.3-1.8,34.5
				c-2.2,14.2-7.6,40.1-7.9,51.1c0,0,10.9,9.3,40.8,13.5c0,0,8.2-4.3,10-9.6c0,0-9.1-28.7-11.8-41.9c-2.7-13.2-7.2-42.2-5.8-52.5
				l12.9-27.7L50.1,31.3l4.6-7.2l-5.2-2.4L56,6.6z"/>
			<path class="st2" d="M127.3,174.5c-1.2-7-2.6-13.3-4.2-22.3c0-0.1,2.5-59.2-1.3-75.5c0.1-0.3,0-1.8,0-1.8
				c2.6-35.9,7.1-49.2,9.2-54.3l1.2-2.4c0,0,5.8-1.3,7.2,6.3c1.3,7.6,13.2,81,13.5,102.7c0.2,21.8-1.6,47.3-1.6,47.3L127.3,174.5
				L127.3,174.5z"/>
			<path class="st4" d="M71.5,57.6c0,0,12.4-30.6,13.9-34.9C86.8,18.5,89.5,0,89.5,0L96,6.3l6.7,18.2l-4.6,2.4l5.4,6.5l-44.9,52
				L71.5,57.6z"/>
			<polygon class="st4" points="56,6.6 63,0 65.6,21.5 76,49.6 72,59.4 50.1,31.3 54.7,24.1 49.5,21.8 			"/>
			<polygon class="st5" points="100,61.4 88.1,61.4 88.1,86.2 89.7,88.4 100,88.4 110.3,88.4 112,86.2 112,61.4 			"/>
			<rect x="88.1" y="61.4" class="st4" width="23.9" height="6.1"/>
			<path class="st4" d="M69.1,89.9c0,1.8-1.5,3.3-3.3,3.3c-1.8,0-3.3-1.5-3.3-3.3c0-1.8,1.5-3.3,3.3-3.3
				C67.6,86.6,69.1,88.1,69.1,89.9"/>
			<path class="st4" d="M69.1,115c0,1.8-1.5,3.3-3.3,3.3c-1.8,0-3.3-1.5-3.3-3.3c0-1.8,1.5-3.3,3.3-3.3
				C67.6,111.8,69.1,113.2,69.1,115"/>
		</g>
	</g>
</g>
</svg>
